<svg width="34" height="34" fill="none" xmlns="http://www.w3.org/2000/svg"><path d="M17.003 0c-9.389 0-17 7.611-17 17 0 9.388 7.611 17 17 17 9.388 0 17-7.612 17-17 0-9.389-7.612-17-17-17zm0 5.971l10.06 6.273H6.943l10.06-6.273zm10.185 16.29a1.821 1.821 0 01-1.822 1.822H8.64a1.821 1.821 0 01-1.821-1.821v-9.619c0-.106.01-.21.028-.311l9.612 5.993c.012.008.024.013.036.02a1.006 1.006 0 00.248.102l.022.004c.079.019.158.03.238.03h.001a1 1 0 00.237-.03l.023-.005a1.018 1.018 0 00.247-.102c.012-.006.025-.011.037-.019l9.612-5.993c.017.101.028.205.028.311v9.619z" fill="#6B3CCA"/></svg>