<svg width="34" height="34" fill="none" xmlns="http://www.w3.org/2000/svg"><path d="M29.019 4.977c-6.64-6.638-17.404-6.636-24.042.004-6.638 6.64-6.636 17.403.004 24.041 6.64 6.638 17.404 6.636 24.042-.003a17 17 0 00-.004-24.042zM25.746 23.68l-.002.003v-.006l-.862.856a4.534 4.534 0 01-4.278 1.224 15.062 15.062 0 01-4.375-1.961 20.21 20.21 0 01-3.45-2.782 20.368 20.368 0 01-2.579-3.128 15.863 15.863 0 01-1.938-3.922 4.533 4.533 0 011.133-4.63l1.009-1.008a.72.72 0 011.018-.002l.002.002 3.185 3.185a.72.72 0 01.002 1.017l-.002.003-1.87 1.87a1.524 1.524 0 00-.159 1.983 21.865 21.865 0 002.238 2.612 21.74 21.74 0 002.947 2.477 1.536 1.536 0 001.96-.17l1.808-1.836a.72.72 0 011.02 0l3.19 3.196a.72.72 0 01.003 1.017z" fill="#6B3CCA"/></svg>