<svg width="34" height="34" fill="none" xmlns="http://www.w3.org/2000/svg"><path opacity=".95" fill-rule="evenodd" clip-rule="evenodd" d="M17 34c9.389 0 17-7.611 17-17S26.389 0 17 0 0 7.611 0 17s7.611 17 17 17zm-8.917-8.406h3.98V13.617h-3.98v11.977zm1.964-13.612h.026c1.388 0 2.252-.92 2.252-2.069-.025-1.175-.864-2.07-2.225-2.07-1.362 0-2.253.895-2.253 2.07 0 1.15.864 2.069 2.2 2.069zm12.39 13.612h3.981v-6.867c0-3.679-1.964-5.39-4.583-5.39-2.112 0-3.059 1.16-3.588 1.976v-1.696h-3.98c.052 1.124 0 11.977 0 11.977h3.98v-6.688c0-.358.026-.716.131-.972.288-.715.943-1.456 2.043-1.456 1.44 0 2.017 1.099 2.017 2.709v6.407z" fill="#6B3CCA"/></svg>