<svg width="34" height="34" fill="none" xmlns="http://www.w3.org/2000/svg"><path fill-rule="evenodd" clip-rule="evenodd" d="M17 34c9.389 0 17-7.611 17-17S26.389 0 17 0 0 7.611 0 17s7.611 17 17 17zM8.947 15.269c0-4.473 3.785-8.111 8.436-8.111s8.436 3.638 8.436 8.11c0 6.356-7.643 12.918-7.968 13.194a.726.726 0 01-.936 0c-.325-.276-7.968-6.838-7.968-13.193zm3.75-.059c0 2.467 2.102 4.474 4.686 4.474s4.687-2.007 4.687-4.474c0-2.466-2.103-4.473-4.687-4.473s-4.687 2.007-4.687 4.473z" fill="#6B3CCA"/></svg>