<svg width="26" height="26" fill="none" xmlns="http://www.w3.org/2000/svg"><path fill-rule="evenodd" clip-rule="evenodd" d="M13 26c7.18 0 13-5.82 13-13S20.18 0 13 0 0 5.82 0 13s5.82 13 13 13zm-6.82-6.426h3.044v-9.159H6.18v9.16zm1.502-10.41h.02c1.062 0 1.722-.703 1.722-1.581C9.404 6.683 8.764 6 7.722 6 6.681 6 6 6.684 6 7.583c0 .878.66 1.582 1.682 1.582zm9.475 10.41h3.044v-5.252c0-2.813-1.502-4.122-3.504-4.122-1.615 0-2.34.888-2.744 1.512v-1.297H10.91c.04.86 0 9.16 0 9.16h3.044V14.46c0-.274.02-.548.1-.743.22-.547.721-1.114 1.562-1.114 1.102 0 1.542.84 1.542 2.071v4.9z" fill="#fff"/></svg>