<svg width="20" height="20" fill="none" xmlns="http://www.w3.org/2000/svg"><path d="M10 0C4.479 0 .002 4.477.002 10c0 5.522 4.477 10 10 10 5.522 0 10-4.478 10-10 0-5.523-4.478-10-10-10zm0 3.512l5.918 3.69H4.083l5.918-3.69zm5.992 9.583c0 .592-.48 1.071-1.072 1.071H5.082c-.592 0-1.072-.48-1.072-1.071V7.437c0-.062.007-.123.017-.183l5.654 3.526.021.01a.59.59 0 00.146.06l.013.004a.603.603 0 00.28 0l.013-.003a.594.594 0 00.146-.06l.021-.011 5.655-3.526c.01.06.016.12.016.183v5.658z" fill="#fff"/></svg>