<svg width="20" height="20" fill="none" xmlns="http://www.w3.org/2000/svg"><path d="M17.07 2.927C13.164-.977 6.832-.976 2.927 2.93-.977 6.835-.976 13.167 2.93 17.072A10 10 0 1017.07 2.928zM15.144 13.93l-.001.002v-.004l-.507.504a2.667 2.667 0 01-2.516.72 8.859 8.859 0 01-2.574-1.154 11.888 11.888 0 01-2.03-1.636A11.974 11.974 0 016 10.52a9.331 9.331 0 01-1.14-2.307 2.667 2.667 0 01.667-2.723l.593-.594a.423.423 0 01.6 0L8.594 6.77a.423.423 0 01.001.598l-.001.002-1.1 1.1A.897.897 0 007.4 9.636c.398.546.839 1.06 1.317 1.537a12.785 12.785 0 001.734 1.457.903.903 0 001.153-.1l1.063-1.08a.423.423 0 01.599-.002l.001.002 1.877 1.88a.423.423 0 01.001.598z" fill="#fff"/></svg>