<svg width="20" height="20" fill="none" xmlns="http://www.w3.org/2000/svg"><path fill-rule="evenodd" clip-rule="evenodd" d="M10 20c5.523 0 10-4.477 10-10S15.523 0 10 0 0 4.477 0 10s4.477 10 10 10zM5.263 8.982c0-2.631 2.227-4.771 4.963-4.771 2.735 0 4.962 2.14 4.962 4.77 0 3.739-4.496 7.599-4.687 7.762a.426.426 0 01-.55 0c-.192-.163-4.688-4.023-4.688-7.761zm2.206-.035c0 1.451 1.236 2.632 2.757 2.632 1.52 0 2.756-1.18 2.756-2.632 0-1.45-1.236-2.631-2.756-2.631-1.52 0-2.757 1.18-2.757 2.631z" fill="#fff"/></svg>