<svg width="35" height="30" fill="none" xmlns="http://www.w3.org/2000/svg"><path d="M20 2.499a2.5 2.5 0 11-4.999-.002 2.5 2.5 0 015 .002z" fill="url(#paint0_linear)"/><path d="M30.625 4.998a2.5 2.5 0 11-4.999-.002 2.5 2.5 0 015 .002z" fill="url(#paint1_linear)"/><path d="M9.375 4.998a2.5 2.5 0 11-5-.002 2.5 2.5 0 015 .002z" fill="url(#paint2_linear)"/><path d="M9.375 15.618V10.62c.001-.632.11-1.259.321-1.855-.107-.007-.212-.019-.321-.019h-5a4.32 4.32 0 00-2.458.758A4.375 4.375 0 000 13.12v3.748a3.131 3.131 0 002.5 3.061v-8.683h1.25V30h2.5v-8.135H7.5V30H10V17.859a4.334 4.334 0 01-.625-2.241z" fill="url(#paint3_linear)"/><path d="M21.875 8.746v9.933c.231-.046.457-.12.67-.22a3.123 3.123 0 001.83-2.841V10.62a4.377 4.377 0 00-1.914-3.613 4.325 4.325 0 00-2.46-.76h-5a4.379 4.379 0 00-4.376 4.373v4.998a3.13 3.13 0 002.5 3.06V8.747h1.25V30h2.5V19.366h1.25V30h2.5V8.746h1.25z" fill="url(#paint4_linear)"/><path d="M32.5 11.245v8.683a2.9 2.9 0 00.67-.22 3.123 3.123 0 001.83-2.84v-3.75a4.377 4.377 0 00-1.914-3.613 4.325 4.325 0 00-2.461-.76h-5c-.11.001-.216.013-.323.02a5.61 5.61 0 01.323 1.855v4.998a4.3 4.3 0 01-.625 2.23V30h2.5v-8.135h1.25V30h2.5V11.245h1.25z" fill="url(#paint5_linear)"/><defs><linearGradient id="paint0_linear" x1="7.656" y1="0" x2="16.087" y2="33.142" gradientUnits="userSpaceOnUse"><stop stop-color="#A233FF" stop-opacity=".75"/><stop offset="1" stop-color="#005FE0" stop-opacity=".91"/></linearGradient><linearGradient id="paint1_linear" x1="7.656" y1="0" x2="16.087" y2="33.142" gradientUnits="userSpaceOnUse"><stop stop-color="#A233FF" stop-opacity=".75"/><stop offset="1" stop-color="#005FE0" stop-opacity=".91"/></linearGradient><linearGradient id="paint2_linear" x1="7.656" y1="0" x2="16.087" y2="33.142" gradientUnits="userSpaceOnUse"><stop stop-color="#A233FF" stop-opacity=".75"/><stop offset="1" stop-color="#005FE0" stop-opacity=".91"/></linearGradient><linearGradient id="paint3_linear" x1="7.656" y1="0" x2="16.087" y2="33.142" gradientUnits="userSpaceOnUse"><stop stop-color="#A233FF" stop-opacity=".75"/><stop offset="1" stop-color="#005FE0" stop-opacity=".91"/></linearGradient><linearGradient id="paint4_linear" x1="7.656" y1="0" x2="16.087" y2="33.142" gradientUnits="userSpaceOnUse"><stop stop-color="#A233FF" stop-opacity=".75"/><stop offset="1" stop-color="#005FE0" stop-opacity=".91"/></linearGradient><linearGradient id="paint5_linear" x1="7.656" y1="0" x2="16.087" y2="33.142" gradientUnits="userSpaceOnUse"><stop stop-color="#A233FF" stop-opacity=".75"/><stop offset="1" stop-color="#005FE0" stop-opacity=".91"/></linearGradient></defs></svg>