<svg width="34" height="34" fill="none" xmlns="http://www.w3.org/2000/svg"><path d="M21.457 20.478c-1.7-1.756-3.26-3.796-4.64-6.07-.574-.952-1.174-1.972-1.646-3.081-.06-.142-.117-.284-.171-.422h-2.893c-.571 0-1.036.45-1.036 1.002V30.17c0 .554.465 1.003 1.036 1.003h9.786c.571 0 1.035-.45 1.035-1.003v-8.754a3.673 3.673 0 01-1.471-.937z" fill="url(#paint0_linear)"/><path d="M.793 28.154l7.19 2.738c.35.135.731-.118.731-.484v-18.68c0-.498-.314-.944-.793-1.128L.761 7.872C.396 7.734 0 7.993 0 8.374v18.649c0 .501.314.947.793 1.13z" fill="url(#paint1_linear)"/><path d="M31.007 15.4a31.387 31.387 0 01-4.118 5.113 3.779 3.779 0 01-1.603.961v8.633c0 .498.314.944.793 1.127l7.16 2.728c.365.139.761-.12.761-.501V14.805c0-.498-.314-.944-.793-1.127l-.94-.356a35.6 35.6 0 01-1.26 2.078z" fill="url(#paint2_linear)"/><path d="M23.018 19.057c.321.332.746.498 1.171.498.393 0 .786-.142 1.097-.422.021-.017.039-.038.06-.055a29.433 29.433 0 003.847-4.775 34.6 34.6 0 001.071-1.746c.9-1.587 1.632-3.315 1.632-5.089C31.896 3.343 28.443 0 24.182 0c-4.26 0-7.714 3.343-7.714 7.468 0 1.21.35 2.351.85 3.44.389.847.871 1.663 1.35 2.455 1.21 2.002 2.628 3.907 4.264 5.608.025.024.057.055.086.086zm-1.268-8.156c-1.25-.767-2.075-2.12-2.075-3.654-.004-2.39 2-4.329 4.468-4.329s4.471 1.94 4.471 4.329c0 1.635-.94 3.06-2.321 3.796a4.592 4.592 0 01-2.15.529 4.582 4.582 0 01-2.393-.67z" fill="url(#paint3_linear)"/><defs><linearGradient id="paint0_linear" x1="7.438" y1="0" x2="18.345" y2="36.754" gradientUnits="userSpaceOnUse"><stop stop-color="#A233FF" stop-opacity=".75"/><stop offset="1" stop-color="#005FE0" stop-opacity=".91"/></linearGradient><linearGradient id="paint1_linear" x1="7.438" y1="0" x2="18.345" y2="36.754" gradientUnits="userSpaceOnUse"><stop stop-color="#A233FF" stop-opacity=".75"/><stop offset="1" stop-color="#005FE0" stop-opacity=".91"/></linearGradient><linearGradient id="paint2_linear" x1="7.438" y1="0" x2="18.345" y2="36.754" gradientUnits="userSpaceOnUse"><stop stop-color="#A233FF" stop-opacity=".75"/><stop offset="1" stop-color="#005FE0" stop-opacity=".91"/></linearGradient><linearGradient id="paint3_linear" x1="7.438" y1="0" x2="18.345" y2="36.754" gradientUnits="userSpaceOnUse"><stop stop-color="#A233FF" stop-opacity=".75"/><stop offset="1" stop-color="#005FE0" stop-opacity=".91"/></linearGradient></defs></svg>