<svg width="35" height="36" fill="none" xmlns="http://www.w3.org/2000/svg"><path d="M5.155 17.134a3.04 3.04 0 002.113-.858l3.012 1.505c-.015.123-.037.244-.037.37a3.056 3.056 0 003.052 3.053 3.056 3.056 0 003.053-3.053c0-.47-.116-.91-.306-1.307l4.085-4.086c.398.19.838.306 1.308.306a3.056 3.056 0 003.052-3.053c0-.317-.062-.616-.152-.904l3.55-2.662a3.032 3.032 0 001.69.514 3.056 3.056 0 003.052-3.053A3.056 3.056 0 0029.575.854a3.056 3.056 0 00-3.053 3.052c0 .317.063.617.153.904l-3.55 2.662a3.032 3.032 0 00-1.69-.513 3.056 3.056 0 00-3.052 3.052c0 .47.115.91.306 1.308l-4.086 4.086a3.016 3.016 0 00-1.308-.306c-.82 0-1.564.33-2.113.858L8.17 14.451c.015-.123.038-.243.038-.37a3.056 3.056 0 00-3.053-3.052 3.056 3.056 0 00-3.052 3.052 3.056 3.056 0 003.052 3.053z" fill="url(#paint0_linear)"/><path d="M33.712 33.55h-1.085V12.046c0-.562-.455-1.017-1.017-1.017h-4.07c-.563 0-1.018.455-1.018 1.017V33.55h-2.035v-15.4c0-.562-.455-1.017-1.017-1.017H19.4c-.562 0-1.017.455-1.017 1.017v15.4h-2.035v-7.26c0-.562-.456-1.017-1.018-1.017h-4.07c-.562 0-1.017.455-1.017 1.017v7.259H8.208V22.22c0-.562-.456-1.017-1.018-1.017H3.12c-.562 0-1.017.455-1.017 1.017v11.33H1.017a1.017 1.017 0 100 2.035h32.696a1.017 1.017 0 100-2.035z" fill="url(#paint1_linear)"/><defs><linearGradient id="paint0_linear" x1="7.597" y1=".854" x2="18.739" y2="38.398" gradientUnits="userSpaceOnUse"><stop stop-color="#A233FF" stop-opacity=".75"/><stop offset="1" stop-color="#005FE0" stop-opacity=".91"/></linearGradient><linearGradient id="paint1_linear" x1="7.597" y1=".854" x2="18.739" y2="38.398" gradientUnits="userSpaceOnUse"><stop stop-color="#A233FF" stop-opacity=".75"/><stop offset="1" stop-color="#005FE0" stop-opacity=".91"/></linearGradient></defs></svg>