<svg width="32" height="30" fill="none" xmlns="http://www.w3.org/2000/svg"><path d="M26.566 27.983h-2.315v-1.932H7.75v1.932H5.434c-.52 0-.94.452-.94 1.008 0 .558.42 1.009.94 1.009h21.132c.52 0 .94-.451.94-1.009 0-.556-.42-1.008-.94-1.008z" fill="url(#paint0_linear)"/><path d="M31.093 0H.907C.407 0 0 .436 0 .973V22.8c0 .538.406.974.907.974h30.186c.5 0 .907-.436.907-.974V.973C32 .436 31.594 0 31.093 0zM16.925 20.798c-.053.45-.39.813-.81.87-.615.082-1.132-.472-1.054-1.132.052-.45.39-.812.81-.869.615-.083 1.132.472 1.054 1.131zM16 16.602c-.518 0-.938-.451-.938-1.008 0-.557.42-1.009.938-1.009s.938.452.938 1.009c0 .557-.42 1.008-.938 1.008zm3.203-2.913a.902.902 0 01-.663.295.902.902 0 01-.662-.295c-1.036-1.114-2.72-1.114-3.755 0a.892.892 0 01-1.326 0 1.063 1.063 0 010-1.426c1.766-1.9 4.64-1.9 6.406 0a1.063 1.063 0 010 1.426zm2.411-2.594a.902.902 0 01-.663.296.902.902 0 01-.662-.296c-2.365-2.543-6.213-2.543-8.578 0a.892.892 0 01-1.325 0 1.063 1.063 0 010-1.426c3.095-3.33 8.133-3.33 11.228 0a1.063 1.063 0 010 1.426z" fill="url(#paint1_linear)"/><defs><linearGradient id="paint0_linear" x1="7" y1="0" x2="16.112" y2="32.751" gradientUnits="userSpaceOnUse"><stop stop-color="#A233FF" stop-opacity=".75"/><stop offset="1" stop-color="#005FE0" stop-opacity=".91"/></linearGradient><linearGradient id="paint1_linear" x1="7" y1="0" x2="16.112" y2="32.751" gradientUnits="userSpaceOnUse"><stop stop-color="#A233FF" stop-opacity=".75"/><stop offset="1" stop-color="#005FE0" stop-opacity=".91"/></linearGradient></defs></svg>