<svg width="34" height="34" fill="none" xmlns="http://www.w3.org/2000/svg"><path d="M24.969 29.95h1.992V34h-1.992v-4.05z" fill="url(#paint0_linear)"/><path d="M17.996 3.984V34h4.98v-6.043h5.977V34H34V3.984L25.965 0l-7.969 3.984zm10.957 4.051h1.992v1.992h-1.992V8.035zm0 3.985h1.992v1.992h-1.992V12.02zm0 3.984h1.992v1.992h-1.992v-1.992zm0 3.984h1.992v1.992h-1.992v-1.992zm0 3.985h1.992v1.992h-1.992v-1.992zm-5.976 1.992h-1.993v-1.992h1.993v1.992zm0-3.985h-1.993v-1.992h1.993v1.992zm0-3.984h-1.993v-1.992h1.993v1.992zm0-3.984h-1.993V12.02h1.993v1.992zm0-3.985h-1.993V8.035h1.993v1.992zm3.984 15.938h-1.992v-1.992h1.992v1.992zm0-3.985h-1.992v-1.992h1.992v1.992zm0-3.984h-1.992v-1.992h1.992v1.992zm0-3.984h-1.992V12.02h1.992v1.992zm0-3.985h-1.992V8.035h1.992v1.992z" fill="url(#paint1_linear)"/><path d="M7.04 29.95h1.99V34H7.04v-4.05z" fill="url(#paint2_linear)"/><path d="M5.047 27.957h5.976V34h4.98V16.004l-7.968-3.985L0 16.005V34h5.047v-6.043zm5.976-7.969h1.993v1.992h-1.993v-1.992zm0 3.985h1.993v1.992h-1.993v-1.992zM7.04 19.988h1.992v1.992H7.04v-1.992zm0 3.985h1.992v1.992H7.04v-1.992zm-3.984-3.985h1.992v1.992H3.055v-1.992zm0 3.985h1.992v1.992H3.055v-1.992z" fill="url(#paint3_linear)"/><defs><linearGradient id="paint0_linear" x1="7.438" y1="0" x2="18.345" y2="36.754" gradientUnits="userSpaceOnUse"><stop stop-color="#A233FF" stop-opacity=".75"/><stop offset="1" stop-color="#005FE0" stop-opacity=".91"/></linearGradient><linearGradient id="paint1_linear" x1="7.438" y1="0" x2="18.345" y2="36.754" gradientUnits="userSpaceOnUse"><stop stop-color="#A233FF" stop-opacity=".75"/><stop offset="1" stop-color="#005FE0" stop-opacity=".91"/></linearGradient><linearGradient id="paint2_linear" x1="7.438" y1="0" x2="18.345" y2="36.754" gradientUnits="userSpaceOnUse"><stop stop-color="#A233FF" stop-opacity=".75"/><stop offset="1" stop-color="#005FE0" stop-opacity=".91"/></linearGradient><linearGradient id="paint3_linear" x1="7.438" y1="0" x2="18.345" y2="36.754" gradientUnits="userSpaceOnUse"><stop stop-color="#A233FF" stop-opacity=".75"/><stop offset="1" stop-color="#005FE0" stop-opacity=".91"/></linearGradient></defs></svg>