<svg width="32" height="35" fill="none" xmlns="http://www.w3.org/2000/svg"><path d="M9.352 8.012h7.718v18.193H9.352V8.012z" fill="url(#paint0_linear)"/><path d="M6.249 8.012h1.526v18.193H6.249c-.884 0-1.601-.767-1.601-1.712V9.723c0-.944.717-1.71 1.6-1.71z" fill="url(#paint1_linear)"/><path d="M14.873 4.608c0-.116-.088-.21-.197-.21h-2.93c-.108 0-.197.094-.197.21v1.717H9.296V4.608c0-1.445 1.099-2.62 2.45-2.62h2.93c1.351 0 2.45 1.175 2.45 2.62v1.717h-2.253V4.608z" fill="url(#paint2_linear)"/><path d="M18.648 8.012h1.526c.884 0 1.6.767 1.6 1.712v14.769c0 .945-.716 1.712-1.6 1.712h-1.526V8.012z" fill="url(#paint3_linear)"/><path d="M1.127 27.831h20.178c1.58 0 2.864-1.373 2.864-3.062V5.472C24.169 2.455 26.465 0 29.286 0h1.587C31.496 0 32 .54 32 1.205s-.504 1.205-1.127 1.205h-1.587c-1.579 0-2.863 1.373-2.863 3.062v19.297c0 3.017-2.296 5.472-5.118 5.472H1.127c-.622 0-1.127-.54-1.127-1.205s.504-1.205 1.127-1.205z" fill="url(#paint4_linear)"/><path d="M21.578 35c-1.027 0-1.86-.89-1.86-1.988 0-1.098.833-1.988 1.86-1.988 1.026 0 1.859.89 1.859 1.988 0 1.098-.833 1.988-1.86 1.988z" fill="url(#paint5_linear)"/><path d="M4.845 35c-1.027 0-1.86-.89-1.86-1.988 0-1.098.833-1.988 1.86-1.988 1.027 0 1.86.89 1.86 1.988 0 1.098-.833 1.988-1.86 1.988z" fill="url(#paint6_linear)"/><defs><linearGradient id="paint0_linear" x1="7" y1="0" x2="19.089" y2="37.243" gradientUnits="userSpaceOnUse"><stop stop-color="#A233FF" stop-opacity=".75"/><stop offset="1" stop-color="#005FE0" stop-opacity=".91"/></linearGradient><linearGradient id="paint1_linear" x1="7" y1="0" x2="19.089" y2="37.243" gradientUnits="userSpaceOnUse"><stop stop-color="#A233FF" stop-opacity=".75"/><stop offset="1" stop-color="#005FE0" stop-opacity=".91"/></linearGradient><linearGradient id="paint2_linear" x1="7" y1="0" x2="19.089" y2="37.243" gradientUnits="userSpaceOnUse"><stop stop-color="#A233FF" stop-opacity=".75"/><stop offset="1" stop-color="#005FE0" stop-opacity=".91"/></linearGradient><linearGradient id="paint3_linear" x1="7" y1="0" x2="19.089" y2="37.243" gradientUnits="userSpaceOnUse"><stop stop-color="#A233FF" stop-opacity=".75"/><stop offset="1" stop-color="#005FE0" stop-opacity=".91"/></linearGradient><linearGradient id="paint4_linear" x1="7" y1="0" x2="19.089" y2="37.243" gradientUnits="userSpaceOnUse"><stop stop-color="#A233FF" stop-opacity=".75"/><stop offset="1" stop-color="#005FE0" stop-opacity=".91"/></linearGradient><linearGradient id="paint5_linear" x1="7" y1="0" x2="19.089" y2="37.243" gradientUnits="userSpaceOnUse"><stop stop-color="#A233FF" stop-opacity=".75"/><stop offset="1" stop-color="#005FE0" stop-opacity=".91"/></linearGradient><linearGradient id="paint6_linear" x1="7" y1="0" x2="19.089" y2="37.243" gradientUnits="userSpaceOnUse"><stop stop-color="#A233FF" stop-opacity=".75"/><stop offset="1" stop-color="#005FE0" stop-opacity=".91"/></linearGradient></defs></svg>