<svg width="34" height="34" fill="none" xmlns="http://www.w3.org/2000/svg"><path d="M33.004 15.937H17.996v-.996a2.992 2.992 0 00-2.988-2.989H2.988a.997.997 0 010-1.992h15.763c2.469 0 4.791-.833 6.725-2.3l1.536 4.607c.287.86 1.477.92 1.851.098L33.91 1.406a.993.993 0 00-.116-1.019 1.01 1.01 0 00-.954-.376L20.82 2.004c-.91.15-1.142 1.36-.348 1.837l3.773 2.264c-1.582 1.19-3.48 1.862-5.494 1.862H2.988A2.992 2.992 0 000 10.956a2.992 2.992 0 002.988 2.988h12.02c.55 0 .996.447.996.996v.997H.996a.996.996 0 00-.996.996v16.07c0 .551.446.997.996.997h32.008c.55 0 .996-.446.996-.996V16.933a.995.995 0 00-.996-.996zm-14.012 4.05h1.992a.996.996 0 110 1.993h-1.992a.996.996 0 110-1.992zM17 23.973h1.992a.995.995 0 110 1.992H17a.995.995 0 110-1.992zm-3.984-3.984h1.992a.995.995 0 110 1.992h-1.992a.996.996 0 110-1.992zm-8.036 0h4.051a.996.996 0 110 1.992h-4.05a.996.996 0 110-1.992zm0 3.984h2.06a.996.996 0 110 1.992H4.98a.996.996 0 110-1.992zm4.051 5.977h-4.05a.996.996 0 110-1.992h4.05a.996.996 0 110 1.992zm.996-4.98c0-.551.446-.997.996-.997h1.993a.995.995 0 110 1.992h-1.993a.995.995 0 01-.996-.996zm12.95 4.98h-9.961a.995.995 0 110-1.992h9.96a.996.996 0 110 1.992zm5.976 0h-1.992a.995.995 0 110-1.992h1.992a.996.996 0 110 1.992zm0-3.985h-5.977a.995.995 0 110-1.992h5.977a.996.996 0 110 1.992zm0-3.984h-3.984a.996.996 0 110-1.992h3.984a.996.996 0 110 1.992z" fill="url(#paint0_linear)"/><defs><linearGradient id="paint0_linear" x1="7.438" y1="0" x2="18.345" y2="36.754" gradientUnits="userSpaceOnUse"><stop stop-color="#A233FF" stop-opacity=".75"/><stop offset="1" stop-color="#005FE0" stop-opacity=".91"/></linearGradient></defs></svg>