<svg width="33" height="36" fill="none" xmlns="http://www.w3.org/2000/svg"><path d="M16.526 24.466l-3.043 1.373L13.22 36h6.608l-.264-10.17-3.038-1.364z" fill="url(#paint0_linear)"/><path d="M16.485 17.828a.846.846 0 00-.85.842c0 .464.382.842.85.842a.847.847 0 00.849-.842.847.847 0 00-.85-.842z" fill="url(#paint1_linear)"/><path d="M30.939 28.572a1.463 1.463 0 001.864-.593 1.432 1.432 0 00-.414-1.897l-12.948-9.187-1.536-15.59A1.447 1.447 0 0016.455 0c-.753 0-1.377.56-1.45 1.304l-1.548 15.715L.61 26.134a1.432 1.432 0 00-.414 1.897 1.464 1.464 0 001.865.592l14.462-6.527 14.415 6.476zM16.485 21.67c-1.668 0-3.025-1.346-3.025-3s1.357-3 3.025-3 3.025 1.346 3.025 3-1.357 3-3.025 3z" fill="url(#paint2_linear)"/><path d="M9.202 9.618L7.845 7.932a13.627 13.627 0 00-5.033 8.582l2.15.332a11.478 11.478 0 014.24-7.228z" fill="url(#paint3_linear)"/><path d="M28.04 16.846l2.15-.332a13.627 13.627 0 00-5.034-8.582l-1.357 1.686a11.479 11.479 0 014.24 7.228z" fill="url(#paint4_linear)"/><defs><linearGradient id="paint0_linear" x1="7.219" y1="0" x2="19.627" y2="38.326" gradientUnits="userSpaceOnUse"><stop stop-color="#A233FF" stop-opacity=".75"/><stop offset="1" stop-color="#005FE0" stop-opacity=".91"/></linearGradient><linearGradient id="paint1_linear" x1="7.219" y1="0" x2="19.627" y2="38.326" gradientUnits="userSpaceOnUse"><stop stop-color="#A233FF" stop-opacity=".75"/><stop offset="1" stop-color="#005FE0" stop-opacity=".91"/></linearGradient><linearGradient id="paint2_linear" x1="7.219" y1="0" x2="19.627" y2="38.326" gradientUnits="userSpaceOnUse"><stop stop-color="#A233FF" stop-opacity=".75"/><stop offset="1" stop-color="#005FE0" stop-opacity=".91"/></linearGradient><linearGradient id="paint3_linear" x1="7.219" y1="0" x2="19.627" y2="38.326" gradientUnits="userSpaceOnUse"><stop stop-color="#A233FF" stop-opacity=".75"/><stop offset="1" stop-color="#005FE0" stop-opacity=".91"/></linearGradient><linearGradient id="paint4_linear" x1="7.219" y1="0" x2="19.627" y2="38.326" gradientUnits="userSpaceOnUse"><stop stop-color="#A233FF" stop-opacity=".75"/><stop offset="1" stop-color="#005FE0" stop-opacity=".91"/></linearGradient></defs></svg>