<svg width="35" height="35" fill="none" xmlns="http://www.w3.org/2000/svg"><path d="M35 16.88c0 8.438-5.929 15.45-13.643 16.686.065-.375.083-.763.04-1.156l-.107-.954c2.739-.49 5.212-1.81 7.172-3.706a1.973 1.973 0 01-.35-.413c-.521-.798.16-1.589.16-2.286 0-.684-1.314-.628-1.362-1.08-.166-1.57.917-1.59 1.494-2.197.578-.606-.57-1.984-1.312-1.895-.747.084-2.848-.362-2.656-2.05.234-2.056-2.495-1.874-2.886-2.834-.57-1.398.377-3.114 1.613-3.504 1.75-.552 3.473-2.05 3.338-3.718-.152-1.889-.967-3.593-2.309-4.605a13.43 13.43 0 00-4.476-1.053c-1.405.058-2.641.386-2.585 1.062.139 1.655 4.623 2.085 3.87 3.633-.392.806-3.336 1.945-2.786 3.145.357.781 1.238.112.909 1.61-.151.69-.727 1.987-1.613 2.07-.906.089-1.66-2.43-4.127-2.513-1.165-.04-2.808 1.91-1.413 3.292.844.837 2.429-1.007 2.897.433.33 1.015-.045 3.146 1.494 4.037.56.325 1.42.608 2.27 1.061-1.262.271-2.812.776-4.643 1.516l-1.543-.427c.646-.564 1.695-.962 1.431-2.195-.388-1.811-3.384-1.128-5.45-3.297-.634-.665-1.986-2.874-1.98-5.528a15.283 15.283 0 00-1.616 6.866c0 .762.056 1.512.162 2.244-.024 0-.048-.005-.072-.005-.651 0-1.29.143-1.88.415-.131-.865-.2-1.751-.2-2.654C2.84 7.573 10.053 0 18.92 0S35 7.572 35 16.88zM22.938 21.8l-3.927 1.895.06-.898 2.545-1.206a15.01 15.01 0 00-1.114-.038c-1.406 0-3.78.747-6.408 1.842L5.67 21.062a2.822 2.822 0 00-2.315.371l-.414.273a.705.705 0 00-.008 1.157l5.064 3.449a61.432 61.432 0 00-3.37 1.939L2.03 26.807a1.564 1.564 0 00-1.372-.077l-.246.104c-.367.154-.52.612-.327.973l1.432 2.67c-.54.488-.847.892-.847 1.172 0 .838.982 1.047 1.847 1.047 1.545 0 21.937-4.9 21.937-9.341 0-.88-.574-1.32-1.515-1.555zm-8.598 8.67l4.488-1.66c.197-.073.408.065.433.284l.393 3.53c.099.883-.354 1.732-1.12 2.107l-.422.205a.633.633 0 01-.766-.169l-3.142-3.747c-.153-.183-.082-.47.136-.55z" fill="url(#paint0_linear)"/><defs><linearGradient id="paint0_linear" x1="7.656" y1="0" x2="18.884" y2="37.835" gradientUnits="userSpaceOnUse"><stop stop-color="#A233FF" stop-opacity=".75"/><stop offset="1" stop-color="#005FE0" stop-opacity=".91"/></linearGradient></defs></svg>