<svg width="32" height="32" fill="none" xmlns="http://www.w3.org/2000/svg"><path d="M11.5 16c2.547 0 5.06-1.892 7.517-1.892 1.686 0 3.034 1.008 3.508 2.425.241.718 1.147.945 1.71.438a1.065 1.065 0 00.232-1.277 9.493 9.493 0 00-15.724-1.818 1.125 1.125 0 00.658 1.836c.754.136 1.524.288 2.1.288z" fill="url(#paint0_linear)"/><path d="M9 32H.5a.5.5 0 01-.5-.5V26c0-1.74.274-4.24 1.58-6.27C2.956 17.587 5.116 16.5 8 16.5c.708 0 2.742.5 3.5.5 1.884 0 3.821-.775 5.53-1.46 4.956-1.984 5.867 3.44 3.22 4.442-1.951.739-5.287 1.254-6.86 2.767l8.366-2.202 4.79-4.31C27.22 13.179 27.386 9 31.5 9a.506.506 0 01.493.582c-.052.313-1.39 9.047-1.64 9.272l-8 8c-.173.218-11.024 2.622-11.292 2.684A2.005 2.005 0 009.5 31.5a.5.5 0 01-.5.5z" fill="url(#paint1_linear)"/><path d="M25.462.728c-.163-.053-4.003-1.286-6.56-.39-1.44.504-2.37 1.209-2.887 1.958-.506-.758-1.433-1.471-2.879-1.978-2.532-.887-6.344.357-6.505.41a.505.505 0 00-.261.748c.781 1.199 3.368 4.81 7.101 4.81.736 0 1.468-.19 2.03-.588v3.364a.5.5 0 001 0V5.756c1.148.8 3 .591 4.333.124 2.556-.895 4.796-4.259 4.89-4.401a.506.506 0 00-.262-.751z" fill="url(#paint2_linear)"/><defs><linearGradient id="paint0_linear" x1="7" y1="0" x2="17.266" y2="34.592" gradientUnits="userSpaceOnUse"><stop stop-color="#A233FF" stop-opacity=".75"/><stop offset="1" stop-color="#005FE0" stop-opacity=".91"/></linearGradient><linearGradient id="paint1_linear" x1="7" y1="0" x2="17.266" y2="34.592" gradientUnits="userSpaceOnUse"><stop stop-color="#A233FF" stop-opacity=".75"/><stop offset="1" stop-color="#005FE0" stop-opacity=".91"/></linearGradient><linearGradient id="paint2_linear" x1="7" y1="0" x2="17.266" y2="34.592" gradientUnits="userSpaceOnUse"><stop stop-color="#A233FF" stop-opacity=".75"/><stop offset="1" stop-color="#005FE0" stop-opacity=".91"/></linearGradient></defs></svg>