<svg width="38" height="24" fill="none" xmlns="http://www.w3.org/2000/svg"><path fill-rule="evenodd" clip-rule="evenodd" d="M27.09.239c3.294.816 4.555 2.872 6.135 5.702H27.09V.239zM7.836 6.179c.645 0 1.113.332 1.113 1.108 0 .655-.496 1.186-1.11 1.188H1.113C.498 8.475 0 9.007 0 9.663c0 .657.498 1.188 1.113 1.188h10.02c.62 0 1.117.532 1.117 1.189 0 .656-.498 1.188-1.113 1.188H1.113C.498 13.228 0 13.76 0 14.416c0 .656.498 1.188 1.113 1.188h2.45v3.564c0 .657.498 1.188 1.113 1.188h2.238C7.313 22.454 9.049 24 11.096 24c2.046 0 3.783-1.546 4.182-3.644h11.304C26.98 22.454 28.717 24 30.764 24c2.046 0 3.783-1.546 4.182-3.644h1.94c.616 0 1.114-.531 1.114-1.188V12.04c0-3.486-3.445-3.718-3.449-3.723h-8.574c-.615 0-1.114-.532-1.114-1.188V0H4.676C4.06 0 3.562.532 3.562 1.188v2.614H2.228c-.615 0-1.114.532-1.114 1.188 0 .656.499 1.188 1.114 1.188h5.609zm24.37 11.726c.798.85.798 2.23 0 3.081-1.281 1.368-3.483.395-3.483-1.54 0-1.936 2.202-2.909 3.484-1.54zm-19.667 0c.797.85.797 2.23 0 3.081-1.282 1.368-3.484.395-3.484-1.54 0-1.936 2.202-2.909 3.484-1.54z" fill="url(#paint0_linear)"/><defs><linearGradient id="paint0_linear" x1="8.313" y1="0" x2="13.424" y2="27.271" gradientUnits="userSpaceOnUse"><stop stop-color="#A233FF" stop-opacity=".75"/><stop offset="1" stop-color="#005FE0" stop-opacity=".91"/></linearGradient></defs></svg>