<svg width="34" height="38" fill="none" xmlns="http://www.w3.org/2000/svg"><path d="M30.834 17.572c-1.058 1.219-2.094 2.532-2.818 4.343a2.142 2.142 0 01-1.992 1.38c-.885 0-1.668-.543-2.002-1.385-.837-2.106-2.106-3.54-3.336-4.926-.308-.349-.616-.698-.918-1.058l-.043.017c-1.199.37-2.122 2-1.566 3.324.378.908 3.029.737 2.802 2.692-.189 1.601 1.851 2.023 2.575 1.945.723-.089 1.835 1.219 1.274 1.795-.556.576-1.609.598-1.447 2.083.043.432 1.317.377 1.317 1.03 0 .66-.658 1.408-.15 2.167.107.166.22.294.34.393-2.44 2.305-5.696 3.718-9.264 3.718-7.541 0-13.673-6.294-13.673-14.034 0-2.349.566-4.565 1.565-6.515-.005 2.52 1.306 4.615 1.922 5.247 2.008 2.055 4.917 1.407 5.29 3.13.378 1.717-1.997 1.723-1.84 3.036.161 1.318 3.254 1.667 2.563 2.88-.912 1.613.616 1.73.173 3.718-.238 1.086 1.29 1.297 1.857.471.432-.632.345-1.407 1.215-2.355 1.063-1.163 3.53-1.351 3.255-3.274-.47-3.19-3.493-3.69-4.81-4.438-1.495-.842-1.128-2.864-1.452-3.828-.454-1.368-1.992.383-2.813-.415-1.35-1.308.243-3.158 1.377-3.12 2.391.078 3.125 2.466 4.005 2.383.858-.078 1.415-1.308 1.566-1.961.318-1.424-.54-.787-.886-1.53-.464-.991 1.63-1.938 2.44-2.67a1.11 1.11 0 00.265-.316c.243-.487-.076-.858-.616-1.196-1.08-.67-3.05-1.202-3.141-2.25-.054-.642 1.144-.952 2.51-1.008.227.011.448.033.675.056.113-.66.296-1.308.545-1.928a14.792 14.792 0 00-1.992-.133C7 5.04 0 12.225 0 21.056s7.001 16.017 15.606 16.017c8.604 0 15.606-7.186 15.606-16.017 0-1.196-.13-2.365-.378-3.484zM25.29.962c-4.405.428-7.423 4.809-6.654 9.281.78 4.543 4.862 5.942 6.888 11.042.182.46.813.462.995.002 2.246-5.656 7.02-6.76 7.02-12.646 0-4.508-3.769-8.113-8.249-7.679zm.732 11.753c-2.192 0-3.97-1.824-3.97-4.074s1.778-4.074 3.97-4.074 3.97 1.824 3.97 4.074-1.778 4.074-3.97 4.074z" fill="url(#paint0_linear)"/><defs><linearGradient id="paint0_linear" x1="7.337" y1=".927" x2="19.673" y2="39.497" gradientUnits="userSpaceOnUse"><stop stop-color="#A233FF" stop-opacity=".75"/><stop offset="1" stop-color="#005FE0" stop-opacity=".91"/></linearGradient></defs></svg>