<svg width="34" height="34" fill="none" xmlns="http://www.w3.org/2000/svg"><path d="M25.965 32.938a2.988 2.988 0 00-2.988-2.989H11.023a2.988 2.988 0 00-2.988 2.988V34h17.93v-1.063z" fill="url(#paint0_linear)"/><path d="M32.008 8.035V6.043H19.805a2.984 2.984 0 00-1.809-1.809V0h-1.992v4.234a2.984 2.984 0 00-1.809 1.809H1.992v1.992h2.49L0 18.992a4.986 4.986 0 004.98 4.98h1.993a4.986 4.986 0 004.98-4.98L7.45 8.035h6.745a2.985 2.985 0 001.809 1.809v14.238a4.99 4.99 0 00-3.884 3.875h9.76a4.99 4.99 0 00-3.884-3.875V9.844a2.984 2.984 0 001.809-1.809h6.725l-4.483 10.957a4.986 4.986 0 004.98 4.98h1.992A4.986 4.986 0 0034 18.993L29.497 8.035h2.51zM9.463 17.996H2.49L5.976 9.63l3.486 8.367zm22.047 0h-6.973l3.486-8.367 3.486 8.367z" fill="url(#paint1_linear)"/><defs><linearGradient id="paint0_linear" x1="7.438" y1="0" x2="18.345" y2="36.754" gradientUnits="userSpaceOnUse"><stop stop-color="#A233FF" stop-opacity=".75"/><stop offset="1" stop-color="#005FE0" stop-opacity=".91"/></linearGradient><linearGradient id="paint1_linear" x1="7.438" y1="0" x2="18.345" y2="36.754" gradientUnits="userSpaceOnUse"><stop stop-color="#A233FF" stop-opacity=".75"/><stop offset="1" stop-color="#005FE0" stop-opacity=".91"/></linearGradient></defs></svg>