<svg width="30" height="34" fill="none" xmlns="http://www.w3.org/2000/svg"><path d="M20.416 18.372l3.451.675c.036 1.668 1.438 2.992 3.131 2.956 1.693-.035 3.037-1.416 3.001-3.083-.035-1.668-1.437-2.992-3.13-2.956a3.068 3.068 0 00-2.739 1.795l-3.541-.692a4.91 4.91 0 00-1.408-3.421l4.584-6.379c1.933.906 4.246.096 5.165-1.808.92-1.905.097-4.183-1.836-5.088-1.934-.906-4.246-.096-5.166 1.809a3.775 3.775 0 00.749 4.328l-4.54 6.316c-2.088-1.235-4.774-.82-6.378.986L5.8 9.25a3.004 3.004 0 00-1.31-4.08C2.985 4.4 1.13 4.977.348 6.46a3.004 3.004 0 001.31 4.08 3.111 3.111 0 003.285-.282l6.075 4.647a4.906 4.906 0 001.25 5.947l-3.692 5.14c-1.954-1.167-4.5-.554-5.686 1.371-1.187 1.925-.564 4.433 1.39 5.602 1.955 1.168 4.501.554 5.687-1.37a4.029 4.029 0 00-.373-4.744l3.791-5.281a5.106 5.106 0 004.12.09l4.498 6.546a3.398 3.398 0 00.137 4.855 3.524 3.524 0 004.929-.135 3.398 3.398 0 00-.137-4.855 3.526 3.526 0 00-3.843-.629l-4.434-6.451a4.975 4.975 0 001.762-2.619z" fill="url(#paint0_linear)"/><defs><linearGradient id="paint0_linear" x1="6.563" y1="0" x2="18.646" y2="35.927" gradientUnits="userSpaceOnUse"><stop stop-color="#A233FF" stop-opacity=".75"/><stop offset="1" stop-color="#005FE0" stop-opacity=".91"/></linearGradient></defs></svg>