<svg width="37" height="38" fill="none" xmlns="http://www.w3.org/2000/svg"><path d="M8.543 11.587h2.825v4.236H8.543v-4.236z" fill="url(#paint0_linear)"/><path d="M1.06 15.823h5.365v-5.295c0-.585.474-1.059 1.06-1.059h4.942c.585 0 1.059.474 1.059 1.06v5.294H35.09a1.059 1.059 0 100-2.118h-1.77L32.013 1.87a1.06 1.06 0 00-1.052-.942h-3.178c-.54 0-.993.406-1.052.942l-1.308 11.836H23.37V2.783a1.08 1.08 0 00-.31-.77 1.06 1.06 0 00-1.263-.176l-4.781 2.655V2.783a1.08 1.08 0 00-.31-.77 1.06 1.06 0 00-1.263-.176L10.66 4.492v-1.71a1.08 1.08 0 00-.31-.77 1.06 1.06 0 00-1.263-.175l-6.354 3.53a1.059 1.059 0 00-.545.925v7.413h-1.13a1.059 1.059 0 100 2.118zm15.603-6.354h1.412a1.06 1.06 0 110 2.118h-1.412a1.059 1.059 0 110-2.118z" fill="url(#paint1_linear)"/><path d="M35.09 17.941h-5.365a1.06 1.06 0 00-1.06 1.06c0 5.123-3.638 9.396-8.472 10.377v-4.385A6.356 6.356 0 0024.43 19a1.06 1.06 0 00-1.059-1.06h-2.118A1.06 1.06 0 0020.194 19a2.117 2.117 0 01-4.236 0 1.06 1.06 0 00-1.06-1.06H12.78A1.06 1.06 0 0011.72 19a6.356 6.356 0 004.237 5.992v4.386C11.123 28.396 7.484 24.123 7.484 19a1.06 1.06 0 00-1.059-1.06H1.06a1.059 1.059 0 100 2.118h1.165c.045.683.132 1.358.262 2.021l-1.121.3a1.059 1.059 0 10.548 2.046l1.118-.3c.22.645.48 1.274.78 1.885l-1.002.579a1.059 1.059 0 101.06 1.834l1.004-.58c.378.56.793 1.1 1.245 1.614l-.824.824a1.059 1.059 0 101.498 1.498l.824-.825c.514.45 1.054.864 1.617 1.24l-.583 1.01a1.059 1.059 0 101.834 1.06l.584-1.012c.61.3 1.239.56 1.882.78l-.302 1.127a1.059 1.059 0 102.046.549l.302-1.127c.664.132 1.339.22 2.02.266v1.166a1.059 1.059 0 002.118 0v-1.166a15.88 15.88 0 002.02-.266l.302 1.127a1.06 1.06 0 002.046-.549l-.302-1.127c.643-.22 1.272-.48 1.882-.78l.584 1.011a1.059 1.059 0 101.834-1.059l-.583-1.01a15.85 15.85 0 001.617-1.24l.824.825a1.056 1.056 0 001.498 0 1.059 1.059 0 000-1.498l-.824-.824c.452-.514.867-1.053 1.244-1.614l1.005.58a1.059 1.059 0 101.06-1.834l-1.003-.579c.3-.61.561-1.24.78-1.884l1.118.3a1.06 1.06 0 00.548-2.046l-1.12-.3c.13-.664.217-1.339.261-2.022h1.166a1.059 1.059 0 100-2.118z" fill="url(#paint2_linear)"/><defs><linearGradient id="paint0_linear" x1="7.908" y1=".927" x2="19.503" y2="40.002" gradientUnits="userSpaceOnUse"><stop stop-color="#A233FF" stop-opacity=".75"/><stop offset="1" stop-color="#005FE0" stop-opacity=".91"/></linearGradient><linearGradient id="paint1_linear" x1="7.908" y1=".927" x2="19.503" y2="40.002" gradientUnits="userSpaceOnUse"><stop stop-color="#A233FF" stop-opacity=".75"/><stop offset="1" stop-color="#005FE0" stop-opacity=".91"/></linearGradient><linearGradient id="paint2_linear" x1="7.908" y1=".927" x2="19.503" y2="40.002" gradientUnits="userSpaceOnUse"><stop stop-color="#A233FF" stop-opacity=".75"/><stop offset="1" stop-color="#005FE0" stop-opacity=".91"/></linearGradient></defs></svg>