<svg width="34" height="31" fill="none" xmlns="http://www.w3.org/2000/svg"><path d="M17 6.258L4.874 17.71c0 .016-.003.04-.01.072a.374.374 0 00-.011.072v11.598c0 .419.134.782.4 1.087.268.306.584.46.95.46H14.3V21.72h5.4V31h8.098c.365 0 .682-.154.949-.46.267-.305.4-.668.4-1.087V17.855a.384.384 0 00-.02-.144L17 6.258z" fill="url(#paint0_linear)"/><path d="M33.766 15.101l-4.619-4.397V.846a.813.813 0 00-.19-.556.613.613 0 00-.485-.217h-4.049a.616.616 0 00-.485.217.816.816 0 00-.19.556v4.711L18.604.628A2.27 2.27 0 0017 0c-.618 0-1.152.21-1.602.628L.234 15.101a.74.74 0 00-.232.52.863.863 0 00.148.568l1.307 1.788c.113.145.26.233.443.266.17.016.338-.04.507-.17L17 4.132l14.594 13.941a.6.6 0 00.442.169h.064a.697.697 0 00.443-.266l1.307-1.787a.863.863 0 00.148-.569.741.741 0 00-.232-.519z" fill="url(#paint1_linear)"/><defs><linearGradient id="paint0_linear" x1="7.438" y1="0" x2="16.631" y2="33.975" gradientUnits="userSpaceOnUse"><stop stop-color="#A233FF" stop-opacity=".75"/><stop offset="1" stop-color="#005FE0" stop-opacity=".91"/></linearGradient><linearGradient id="paint1_linear" x1="7.438" y1="0" x2="16.631" y2="33.975" gradientUnits="userSpaceOnUse"><stop stop-color="#A233FF" stop-opacity=".75"/><stop offset="1" stop-color="#005FE0" stop-opacity=".91"/></linearGradient></defs></svg>