<svg width="29" height="37" fill="none" xmlns="http://www.w3.org/2000/svg"><path d="M16.548 7.42c1.203 0 2.178-.97 2.178-2.166a2.172 2.172 0 00-2.178-2.166c-1.202 0-2.177.97-2.177 2.166s.975 2.166 2.177 2.166z" fill="url(#paint0_linear)"/><path d="M20.904 4.393c.962 0 1.741-.776 1.741-1.733 0-.957-.78-1.733-1.741-1.733-.963 0-1.743.776-1.743 1.733 0 .957.78 1.733 1.742 1.733z" fill="url(#paint1_linear)"/><path d="M28.22 30.493l-9.058-14.409v-4.327h2.613V8.725H6.968v3.032H9.58v4.327L.522 30.493A4.304 4.304 0 000 32.55c0 2.393 1.95 4.333 4.355 4.333h20.033c2.405 0 4.355-1.94 4.355-4.333 0-.745-.19-1.446-.523-2.058zM7.457 25.18l5.172-8.227v-5.197h3.484v5.197l5.172 8.227H7.457z" fill="url(#paint2_linear)"/><defs><linearGradient id="paint0_linear" x1="6.287" y1=".927" x2="20.087" y2="38.097" gradientUnits="userSpaceOnUse"><stop stop-color="#A233FF" stop-opacity=".75"/><stop offset="1" stop-color="#005FE0" stop-opacity=".91"/></linearGradient><linearGradient id="paint1_linear" x1="6.287" y1=".927" x2="20.087" y2="38.097" gradientUnits="userSpaceOnUse"><stop stop-color="#A233FF" stop-opacity=".75"/><stop offset="1" stop-color="#005FE0" stop-opacity=".91"/></linearGradient><linearGradient id="paint2_linear" x1="6.287" y1=".927" x2="20.087" y2="38.097" gradientUnits="userSpaceOnUse"><stop stop-color="#A233FF" stop-opacity=".75"/><stop offset="1" stop-color="#005FE0" stop-opacity=".91"/></linearGradient></defs></svg>