<svg width="29" height="33" fill="none" xmlns="http://www.w3.org/2000/svg"><path d="M16.878 21.921a1.664 1.664 0 00-.467-.32c-.371-.183-.778-.294-1.181-.394v2.952c.655-.07 1.407-.294 1.75-.872a1.27 1.27 0 00.13-.921.908.908 0 00-.232-.445z" fill="url(#paint0_linear)"/><path d="M16.977 23.293l.004-.006-.004.006z" fill="url(#paint1_linear)"/><path d="M12.157 17.202a1.07 1.07 0 00-.203.52 1.18 1.18 0 00.067.573c.072.168.223.293.378.393.175.112.367.2.563.274.164.062.349.122.548.18V16.47c-.503.101-1.052.318-1.353.732z" fill="url(#paint2_linear)"/><path d="M16.994 23.266l-.013.021.013-.021z" fill="url(#paint3_linear)"/><path d="M17.01 23.238c.002-.002.002-.002 0 0z" fill="url(#paint4_linear)"/><path d="M16.331 7.18c2.66-2.109 4.437-6.86 3.344-7.067-1.454-.276-4.61.935-6.134 1.148-2.164.247-4.52-2.214-5.842-.843-1.076 1.116.77 5.171 3.659 6.938-8.618 3.998-20.73 24.067.4 25.523 29.24 2.015 14.599-21.803 4.573-25.699zm2.512 15.828c-.09.782-.53 1.49-1.186 1.97-.694.507-1.563.743-2.427.81v.864a.797.797 0 01-.29.608.908.908 0 01-.93.13.817.817 0 01-.5-.738v-.945a5.886 5.886 0 01-.44-.096c-.809-.21-1.558-.618-2.105-1.222a3.548 3.548 0 01-.755-1.305 1.373 1.373 0 01-.068-.274.774.774 0 01.093-.458.88.88 0 01.839-.433.86.86 0 01.74.553c.032.094.055.19.091.283.037.091.08.18.133.266.102.168.23.322.377.456.304.276.691.456 1.095.563v-3.212c-.79-.193-1.604-.442-2.255-.92a2.516 2.516 0 01-.762-.863 2.576 2.576 0 01-.265-1.162 2.636 2.636 0 01.257-1.177c.168-.346.41-.656.706-.914.633-.55 1.475-.857 2.319-.97v-.897c0-.231.107-.455.29-.608a.908.908 0 01.929-.13c.302.132.5.424.5.738v.893c.113.013.225.029.337.048.829.142 1.64.465 2.245 1.029a3.1 3.1 0 01.81 1.229c.032.094.065.191.08.29a.763.763 0 01-.072.462.876.876 0 01-.816.468.866.866 0 01-.765-.52c-.036-.089-.054-.183-.091-.271a1.408 1.408 0 00-.14-.256 1.592 1.592 0 00-.407-.402c-.345-.24-.763-.365-1.18-.435v3.073c.496.112.993.235 1.468.412.72.267 1.4.678 1.793 1.325-.06-.101-.12-.2.002.003l.003.005c.312.519.415 1.14.347 1.73z" fill="url(#paint5_linear)"/><path d="M16.968 23.308l-.012.022a.895.895 0 00.012-.022z" fill="url(#paint6_linear)"/><defs><linearGradient id="paint0_linear" x1="6.344" y1="0" x2="18.11" y2="34.841" gradientUnits="userSpaceOnUse"><stop stop-color="#A233FF" stop-opacity=".75"/><stop offset="1" stop-color="#005FE0" stop-opacity=".91"/></linearGradient><linearGradient id="paint1_linear" x1="6.344" y1="0" x2="18.11" y2="34.841" gradientUnits="userSpaceOnUse"><stop stop-color="#A233FF" stop-opacity=".75"/><stop offset="1" stop-color="#005FE0" stop-opacity=".91"/></linearGradient><linearGradient id="paint2_linear" x1="6.344" y1="0" x2="18.11" y2="34.841" gradientUnits="userSpaceOnUse"><stop stop-color="#A233FF" stop-opacity=".75"/><stop offset="1" stop-color="#005FE0" stop-opacity=".91"/></linearGradient><linearGradient id="paint3_linear" x1="6.344" y1="0" x2="18.11" y2="34.841" gradientUnits="userSpaceOnUse"><stop stop-color="#A233FF" stop-opacity=".75"/><stop offset="1" stop-color="#005FE0" stop-opacity=".91"/></linearGradient><linearGradient id="paint4_linear" x1="6.344" y1="0" x2="18.11" y2="34.841" gradientUnits="userSpaceOnUse"><stop stop-color="#A233FF" stop-opacity=".75"/><stop offset="1" stop-color="#005FE0" stop-opacity=".91"/></linearGradient><linearGradient id="paint5_linear" x1="6.344" y1="0" x2="18.11" y2="34.841" gradientUnits="userSpaceOnUse"><stop stop-color="#A233FF" stop-opacity=".75"/><stop offset="1" stop-color="#005FE0" stop-opacity=".91"/></linearGradient><linearGradient id="paint6_linear" x1="6.344" y1="0" x2="18.11" y2="34.841" gradientUnits="userSpaceOnUse"><stop stop-color="#A233FF" stop-opacity=".75"/><stop offset="1" stop-color="#005FE0" stop-opacity=".91"/></linearGradient></defs></svg>