<svg width="32" height="33" fill="none" xmlns="http://www.w3.org/2000/svg"><path d="M23.121 17.224l-.594-9.701h-4.796v4.356h-2.027V7.523H7.897v4.356H5.87V7.523H1.074L.01 24.916c-.083 1.355.409 2.644 1.385 3.63.976.988 2.296 1.531 3.718 1.531h11.244a8.535 8.535 0 01-1.026-4.06c0-4.411 3.375-8.084 7.791-8.793z" fill="url(#paint0_linear)"/><path d="M7.897 5.657c0-2.053 1.751-3.723 3.904-3.723 2.152 0 3.903 1.67 3.903 3.723v1.866h2.027V5.657c0-3.12-2.66-5.657-5.93-5.657-3.27 0-5.93 2.538-5.93 5.657v1.866h2.026V5.657z" fill="url(#paint1_linear)"/><path d="M32 26.016c0-3.85-3.284-6.983-7.322-6.983-4.037 0-7.32 3.133-7.32 6.983 0 3.851 3.284 6.984 7.32 6.984C28.716 33 32 29.867 32 26.016zm-8.418 3.42l-3.292-3.551 1.519-1.28 1.839 1.983 3.808-3.763 1.459 1.343-5.333 5.269z" fill="url(#paint2_linear)"/><defs><linearGradient id="paint0_linear" x1="7" y1="0" x2="17.862" y2="35.491" gradientUnits="userSpaceOnUse"><stop stop-color="#A233FF" stop-opacity=".75"/><stop offset="1" stop-color="#005FE0" stop-opacity=".91"/></linearGradient><linearGradient id="paint1_linear" x1="7" y1="0" x2="17.862" y2="35.491" gradientUnits="userSpaceOnUse"><stop stop-color="#A233FF" stop-opacity=".75"/><stop offset="1" stop-color="#005FE0" stop-opacity=".91"/></linearGradient><linearGradient id="paint2_linear" x1="7" y1="0" x2="17.862" y2="35.491" gradientUnits="userSpaceOnUse"><stop stop-color="#A233FF" stop-opacity=".75"/><stop offset="1" stop-color="#005FE0" stop-opacity=".91"/></linearGradient></defs></svg>