<svg width="31" height="31" fill="none" xmlns="http://www.w3.org/2000/svg"><path d="M30.581 10.18L16.051.17a.971.971 0 00-1.1 0L.42 10.18a.967.967 0 00-.42.8v18.728C0 30.421.579 31 1.292 31h2.583V15.5c0-.713.579-1.292 1.292-1.292h20.666c.713 0 1.292.579 1.292 1.292V31h2.583c.713 0 1.292-.58 1.292-1.292V10.98a.97.97 0 00-.419-.798z" fill="url(#paint0_linear)"/><path d="M11.948 24.542v.968a.97.97 0 01-1.938 0v-.968H7.75a.646.646 0 00-.646.645v5.167c0 .357.29.646.646.646h6.458c.357 0 .646-.29.646-.646v-5.166a.646.646 0 00-.646-.646h-2.26z" fill="url(#paint1_linear)"/><path d="M20.99 24.542v.968a.97.97 0 01-1.938 0v-.968h-2.26a.646.646 0 00-.646.645v5.167c0 .357.29.646.646.646h6.458c.357 0 .646-.29.646-.646v-5.166a.646.646 0 00-.646-.646h-2.26z" fill="url(#paint2_linear)"/><path d="M11.89 16.792v.968a.97.97 0 01-1.938 0v-.968h-2.26a.646.646 0 00-.647.645v5.167c0 .357.29.646.646.646h6.459c.356 0 .646-.29.646-.646v-5.166a.646.646 0 00-.646-.646h-2.26z" fill="url(#paint3_linear)"/><path d="M21.048 16.792v.968a.97.97 0 01-1.937 0v-.968h-2.26a.646.646 0 00-.646.645v5.167c0 .357.289.646.645.646h6.459c.356 0 .645-.29.645-.646v-5.166a.646.646 0 00-.645-.646h-2.26z" fill="url(#paint4_linear)"/><defs><linearGradient id="paint0_linear" x1="6.781" y1="0" x2="16.726" y2="33.511" gradientUnits="userSpaceOnUse"><stop stop-color="#A233FF" stop-opacity=".75"/><stop offset="1" stop-color="#005FE0" stop-opacity=".91"/></linearGradient><linearGradient id="paint1_linear" x1="6.781" y1="0" x2="16.726" y2="33.511" gradientUnits="userSpaceOnUse"><stop stop-color="#A233FF" stop-opacity=".75"/><stop offset="1" stop-color="#005FE0" stop-opacity=".91"/></linearGradient><linearGradient id="paint2_linear" x1="6.781" y1="0" x2="16.726" y2="33.511" gradientUnits="userSpaceOnUse"><stop stop-color="#A233FF" stop-opacity=".75"/><stop offset="1" stop-color="#005FE0" stop-opacity=".91"/></linearGradient><linearGradient id="paint3_linear" x1="6.781" y1="0" x2="16.726" y2="33.511" gradientUnits="userSpaceOnUse"><stop stop-color="#A233FF" stop-opacity=".75"/><stop offset="1" stop-color="#005FE0" stop-opacity=".91"/></linearGradient><linearGradient id="paint4_linear" x1="6.781" y1="0" x2="16.726" y2="33.511" gradientUnits="userSpaceOnUse"><stop stop-color="#A233FF" stop-opacity=".75"/><stop offset="1" stop-color="#005FE0" stop-opacity=".91"/></linearGradient></defs></svg>