<svg width="36" height="36" fill="none" xmlns="http://www.w3.org/2000/svg"><path d="M22.5 22.992H2.812A2.813 2.813 0 000 25.805v.351h3.867a1.055 1.055 0 010 2.11H0v2.109c0 .582.472 1.055 1.055 1.055h23.203c.582 0 1.055-.473 1.055-1.055v-2.11h-3.868a1.055 1.055 0 110-2.109h3.867v-.351a2.813 2.813 0 00-2.812-2.813zm-6.68 5.274H9.492a1.055 1.055 0 010-2.11h6.328a1.055 1.055 0 010 2.11z" fill="url(#paint0_linear)"/><path d="M4.717 16.608l-1.283 4.275H21.88l-1.283-4.275a3.843 3.843 0 00-3.704-2.756H8.42a3.843 3.843 0 00-3.704 2.756z" fill="url(#paint1_linear)"/><path d="M32.133 33.89h-1.758V16.876h-2.11v17.016h-1.757a1.055 1.055 0 100 2.109h5.625a1.055 1.055 0 100-2.11z" fill="url(#paint2_linear)"/><path d="M29.642 4.922h-1.056l.002 1.083.004 1.086 1.05-.004c.606 0 1.118-.496 1.118-1.082 0-.587-.512-1.083-1.118-1.083z" fill="url(#paint3_linear)"/><path d="M33.54 0h-8.438a2.464 2.464 0 00-2.461 2.46v9.845a2.464 2.464 0 002.46 2.46h8.438A2.464 2.464 0 0036 12.306V2.46A2.464 2.464 0 0033.54 0zm-3.898 8.493l-1.058.004v2.05a.703.703 0 01-1.407 0V4.219a.703.703 0 01.704-.703h1.761c1.392 0 2.524 1.116 2.524 2.489 0 1.372-1.132 2.488-2.523 2.488z" fill="url(#paint4_linear)"/><path d="M4.57 36a2.11 2.11 0 01-2.11-2.11v-.35h4.22v.35A2.11 2.11 0 014.57 36z" fill="url(#paint5_linear)"/><path d="M20.742 36a2.11 2.11 0 01-2.11-2.11v-.35h4.22v.35a2.11 2.11 0 01-2.11 2.11z" fill="url(#paint6_linear)"/><defs><linearGradient id="paint0_linear" x1="7.875" y1="0" x2="19.424" y2="38.916" gradientUnits="userSpaceOnUse"><stop stop-color="#A233FF" stop-opacity=".75"/><stop offset="1" stop-color="#005FE0" stop-opacity=".91"/></linearGradient><linearGradient id="paint1_linear" x1="7.875" y1="0" x2="19.424" y2="38.916" gradientUnits="userSpaceOnUse"><stop stop-color="#A233FF" stop-opacity=".75"/><stop offset="1" stop-color="#005FE0" stop-opacity=".91"/></linearGradient><linearGradient id="paint2_linear" x1="7.875" y1="0" x2="19.424" y2="38.916" gradientUnits="userSpaceOnUse"><stop stop-color="#A233FF" stop-opacity=".75"/><stop offset="1" stop-color="#005FE0" stop-opacity=".91"/></linearGradient><linearGradient id="paint3_linear" x1="7.875" y1="0" x2="19.424" y2="38.916" gradientUnits="userSpaceOnUse"><stop stop-color="#A233FF" stop-opacity=".75"/><stop offset="1" stop-color="#005FE0" stop-opacity=".91"/></linearGradient><linearGradient id="paint4_linear" x1="7.875" y1="0" x2="19.424" y2="38.916" gradientUnits="userSpaceOnUse"><stop stop-color="#A233FF" stop-opacity=".75"/><stop offset="1" stop-color="#005FE0" stop-opacity=".91"/></linearGradient><linearGradient id="paint5_linear" x1="7.875" y1="0" x2="19.424" y2="38.916" gradientUnits="userSpaceOnUse"><stop stop-color="#A233FF" stop-opacity=".75"/><stop offset="1" stop-color="#005FE0" stop-opacity=".91"/></linearGradient><linearGradient id="paint6_linear" x1="7.875" y1="0" x2="19.424" y2="38.916" gradientUnits="userSpaceOnUse"><stop stop-color="#A233FF" stop-opacity=".75"/><stop offset="1" stop-color="#005FE0" stop-opacity=".91"/></linearGradient></defs></svg>